<svg xmlns="http://www.w3.org/2000/svg" viewBox="0 0 500.75 311.37">
  <title>binoculars</title>
  <g>
    <ellipse cx="2093.9" cy="196.05" rx="54" ry="56.5" transform="translate(-351.29 2086.4) rotate(-80.45)" fill="#6045b5"/>
    <ellipse cx="2257.6" cy="223.61" rx="54" ry="56.5" transform="translate(-241.93 2270.8) rotate(-80.45)" fill="#6045b5"/>
    <path d="M2090.38,340.47s23.9-39.58-5.77-95.28c14.3,2.41,44.54,9.52,64.74,22.05a196.45,196.45,0,0,0,32.71,4.49s55.57-4.84,66.25,1c7.06,3.22-7.42,10.92-7.42,10.92s-41.51,53.86-31.19,76.89c-14.95-7.59-20.35-23.71-20.35-23.71l-8-12.51-3.23-35-39-3.51,1.12,17.43-14.17,17.9S2102.87,344.6,2090.38,340.47Z" transform="translate(-1904.31 -141.97)" fill="#6045b5"/>
    <ellipse cx="2155.79" cy="307.37" rx="28.5" ry="29" transform="translate(-409.45 2240.26) rotate(-80.45)" fill="#442984"/>
    <ellipse cx="2155.29" cy="307.29" rx="13.5" ry="14.5" transform="translate(-409.78 2239.7) rotate(-80.45)" fill="#6045b5"/>
    <path d="M1987,207.47l43.29-34.29s34.89-20.49,81.55-2.5c32.2,13.53,38.1,26.69,38.1,26.69s26.11,19.61,55.22,9.29c16.95-10.33,40.79-13.42,40.79-13.42s34.52-.27,66.23,16.22c11.16,12,15.43,16.79,15.43,16.79l27.22,43.12L2261.79,274l-13.16,2.86s-26-5.38-66.25-1c-19.73,2.76-48.64-12.24-48.64-12.24s-37-15.35-48.8-14.3C2072.12,250.19,1987,207.47,1987,207.47Z" transform="translate(-1904.31 -141.97)" fill="#442984"/>
    <ellipse cx="2004.3" cy="303.67" rx="99" ry="100" transform="translate(-532.15 2087.79) rotate(-80.45)" fill="#442984"/>
    <ellipse cx="2004.38" cy="303.18" rx="75.78" ry="76.7" transform="translate(-531.59 2087.46) rotate(-80.45)" fill="#5353f2" opacity="0.59"/>
    <ellipse cx="2004.87" cy="303.26" rx="61.5" ry="63.5" transform="translate(-531.26 2088.02) rotate(-80.45)" fill="#fff" opacity="0.35"/>
    <ellipse cx="2305.07" cy="354.3" rx="99" ry="100" transform="translate(-331.22 2426.61) rotate(-80.45)" fill="#442984"/>
    <ellipse cx="2307.29" cy="353.15" rx="75.78" ry="76.7" transform="translate(-328.24 2427.84) rotate(-80.45)" fill="#5353f2" opacity="0.59"/>
    <ellipse cx="2307.62" cy="354.22" rx="61.5" ry="63.5" transform="translate(-329.02 2429.06) rotate(-80.45)" fill="#fff" opacity="0.35"/>
  </g>
</svg>
