<svg id="Layer_1" data-name="Layer 1" xmlns="http://www.w3.org/2000/svg" viewBox="0 0 522.81 399.36"><defs><style>.cls-1{fill:#452e83;}.cls-2,.cls-9{fill:#f4f2f9;}.cls-3,.cls-8{fill:#614ea0;}.cls-3{stroke:#010101;}.cls-3,.cls-4,.cls-5,.cls-6,.cls-7{stroke-miterlimit:10;}.cls-3,.cls-4,.cls-5,.cls-6{stroke-width:0.25px;}.cls-4,.cls-5,.cls-6,.cls-7{fill:none;stroke:#614ea0;}.cls-4{opacity:0.4;}.cls-5{opacity:0.6;}.cls-6{opacity:0.8;}.cls-7{stroke-width:2px;}.cls-9{opacity:0.2;}</style></defs><title>books</title><path class="cls-1" d="M133.08,388.74L62.24,399.29a6.1,6.1,0,0,1-6.91-5L0,67,82.91,54.64,138.2,381.7A6.1,6.1,0,0,1,133.08,388.74Z"/><polygon class="cls-2" points="108.71 253.5 44.22 263.1 19.37 116.1 83.86 106.5 108.71 253.5"/><path class="cls-2" d="M114.43,321.79c2.21,13.05-7.9,25.41-22.57,27.59S63.51,342.75,61.3,329.7s7.9-25.41,22.57-27.59S112.22,308.73,114.43,321.79Z"/><path class="cls-3" d="M112.74,322c2.07,12.26-7.38,23.85-21.12,25.9S65.07,341.7,63,329.45s7.38-23.85,21.12-25.9S110.67,309.78,112.74,322Z"/><line class="cls-4" x1="21.77" y1="117.22" x2="81.95" y2="108.26"/><line class="cls-5" x1="22.06" y1="118.95" x2="82.25" y2="109.99"/><line class="cls-6" x1="22.35" y1="120.68" x2="82.54" y2="111.72"/><line class="cls-6" x1="23.6" y1="128.08" x2="83.79" y2="119.12"/><line class="cls-5" x1="23.89" y1="129.81" x2="84.08" y2="120.85"/><line class="cls-4" x1="24.19" y1="131.54" x2="84.37" y2="122.58"/><line class="cls-7" x1="25.91" y1="141.72" x2="86.09" y2="132.76"/><line class="cls-7" x1="29.22" y1="161.29" x2="89.4" y2="152.33"/><line class="cls-7" x1="32.53" y1="180.86" x2="92.71" y2="171.9"/><line class="cls-7" x1="35.83" y1="200.44" x2="96.02" y2="191.47"/><line class="cls-7" x1="39.14" y1="220.01" x2="99.33" y2="211.04"/><line class="cls-7" x1="42.45" y1="239.58" x2="102.64" y2="230.61"/><polygon class="cls-7" points="105.2 251.36 46.24 260.14 45.12 253.51 104.08 244.73 105.2 251.36"/><polygon class="cls-8" points="57.48 258.46 46.24 260.14 45.12 253.51 56.37 251.84 57.48 258.46"/><polygon class="cls-8" points="105.2 251.36 93.95 253.03 92.83 246.41 104.08 244.73 105.2 251.36"/><polygon class="cls-8" points="83.25 117.82 23.38 126.74 22.64 122.41 82.52 113.49 83.25 117.82"/><path class="cls-9" d="M112.74,322c2.07,12.26-7.38,23.85-21.12,25.9S65.07,341.7,63,329.45s7.38-23.85,21.12-25.9S110.67,309.78,112.74,322Z"/><path class="cls-1" d="M92.63,53.1l82.93-12.21,54.66,327.16a6.1,6.1,0,0,1-5.12,7l-70.87,10.43a6.1,6.1,0,0,1-6.9-5Z"/><polygon class="cls-2" points="122.89 187.48 187.4 177.99 211.96 325.03 147.46 334.52 122.89 187.48"/><path class="cls-2" d="M117.31,119.18c-2.18-13.06,7.95-25.39,22.62-27.55s28.34,6.67,30.52,19.73-7.95,25.39-22.62,27.55S119.49,132.24,117.31,119.18Z"/><path class="cls-3" d="M119,118.93c-2-12.26,7.43-23.84,21.17-25.86s26.54,6.28,28.59,18.54-7.43,23.84-21.17,25.86S121,131.19,119,118.93Z"/><line class="cls-4" x1="209.57" y1="323.9" x2="149.37" y2="332.76"/><line class="cls-5" x1="209.28" y1="322.17" x2="149.08" y2="331.03"/><line class="cls-6" x1="208.99" y1="320.44" x2="148.79" y2="329.3"/><line class="cls-6" x1="207.76" y1="313.04" x2="147.55" y2="321.9"/><line class="cls-5" x1="207.47" y1="311.31" x2="147.26" y2="320.17"/><line class="cls-4" x1="207.18" y1="309.58" x2="146.98" y2="318.44"/><line class="cls-7" x1="205.48" y1="299.4" x2="145.27" y2="308.26"/><line class="cls-7" x1="202.21" y1="279.82" x2="142" y2="288.68"/><line class="cls-7" x1="198.94" y1="260.24" x2="138.73" y2="269.1"/><line class="cls-7" x1="195.67" y1="240.67" x2="135.46" y2="249.53"/><line class="cls-7" x1="192.4" y1="221.09" x2="132.19" y2="229.95"/><line class="cls-7" x1="189.12" y1="201.51" x2="128.92" y2="210.38"/><polygon class="cls-7" points="126.4 189.63 185.37 180.95 186.48 187.58 127.51 196.26 126.4 189.63"/><polygon class="cls-8" points="174.13 182.6 185.37 180.95 186.48 187.58 175.23 189.23 174.13 182.6"/><polygon class="cls-8" points="126.4 189.63 137.65 187.97 138.75 194.6 127.51 196.26 126.4 189.63"/><polygon class="cls-8" points="148.09 323.2 207.98 314.39 208.7 318.71 148.81 327.53 148.09 323.2"/><path class="cls-9" d="M119,118.93c-2-12.26,7.43-23.84,21.17-25.86s26.54,6.28,28.59,18.54-7.43,23.84-21.17,25.86S121,131.19,119,118.93Z"/><path class="cls-1" d="M315.87,361.52L245,372.07a6.1,6.1,0,0,1-6.91-5L182.79,39.76,265.7,27.41,321,354.47A6.1,6.1,0,0,1,315.87,361.52Z"/><polygon class="cls-2" points="291.5 226.27 227.01 235.88 202.16 88.88 266.65 79.28 291.5 226.27"/><path class="cls-2" d="M297.22,294.56c2.21,13.05-7.9,25.41-22.57,27.59s-28.35-6.63-30.56-19.68,7.9-25.41,22.57-27.59S295,281.51,297.22,294.56Z"/><path class="cls-3" d="M295.53,294.81c2.07,12.26-7.38,23.85-21.12,25.9s-26.55-6.23-28.62-18.49,7.38-23.85,21.12-25.9S293.46,282.56,295.53,294.81Z"/><line class="cls-4" x1="204.56" y1="90" x2="264.74" y2="81.04"/><line class="cls-5" x1="204.85" y1="91.73" x2="265.04" y2="82.77"/><line class="cls-6" x1="205.14" y1="93.46" x2="265.33" y2="84.5"/><line class="cls-6" x1="206.39" y1="100.86" x2="266.58" y2="91.89"/><line class="cls-5" x1="206.68" y1="102.59" x2="266.87" y2="93.62"/><line class="cls-4" x1="206.98" y1="104.32" x2="267.16" y2="95.35"/><line class="cls-7" x1="208.7" y1="114.5" x2="268.88" y2="105.54"/><line class="cls-7" x1="212.01" y1="134.07" x2="272.19" y2="125.11"/><line class="cls-7" x1="215.32" y1="153.64" x2="275.5" y2="144.68"/><line class="cls-7" x1="218.62" y1="173.21" x2="278.81" y2="164.25"/><line class="cls-7" x1="221.93" y1="192.78" x2="282.12" y2="183.82"/><line class="cls-7" x1="225.24" y1="212.35" x2="285.43" y2="203.39"/><polygon class="cls-7" points="287.99 224.13 229.03 232.92 227.91 226.29 286.87 217.51 287.99 224.13"/><polygon class="cls-8" points="240.28 231.24 229.03 232.92 227.91 226.29 239.16 224.61 240.28 231.24"/><polygon class="cls-8" points="287.99 224.13 276.74 225.81 275.62 219.18 286.87 217.51 287.99 224.13"/><polygon class="cls-8" points="266.04 90.59 206.16 99.51 205.43 95.19 265.31 86.27 266.04 90.59"/><path class="cls-9" d="M295.53,294.81c2.07,12.26-7.38,23.85-21.12,25.9s-26.55-6.23-28.62-18.49,7.38-23.85,21.12-25.9S293.46,282.56,295.53,294.81Z"/><path class="cls-1" d="M272.39,26.64l82.84-12.77,57.19,326.77a6.1,6.1,0,0,1-5.07,7.07l-70.79,10.92a6.1,6.1,0,0,1-6.93-5Z"/><polygon class="cls-2" points="303.7 160.81 368.13 150.87 393.84 297.74 329.41 307.67 303.7 160.81"/><path class="cls-2" d="M297.58,92.55c-2.28-13,7.75-25.45,22.41-27.71s28.39,6.48,30.67,19.52-7.75,25.45-22.41,27.71S299.87,105.59,297.58,92.55Z"/><path class="cls-3" d="M299.27,92.29c-2.14-12.25,7.25-23.89,21-26s26.59,6.1,28.73,18.34-7.25,23.89-21,26S301.42,104.53,299.27,92.29Z"/><line class="cls-4" x1="391.44" y1="296.63" x2="331.3" y2="305.9"/><line class="cls-5" x1="391.13" y1="294.9" x2="331" y2="304.18"/><line class="cls-6" x1="390.83" y1="293.17" x2="330.7" y2="302.45"/><line class="cls-6" x1="389.54" y1="285.78" x2="329.41" y2="295.06"/><line class="cls-5" x1="389.24" y1="284.06" x2="329.1" y2="293.33"/><line class="cls-4" x1="388.93" y1="282.33" x2="328.8" y2="291.6"/><line class="cls-7" x1="387.15" y1="272.15" x2="327.02" y2="281.43"/><line class="cls-7" x1="383.73" y1="252.6" x2="323.6" y2="261.87"/><line class="cls-7" x1="380.31" y1="233.05" x2="320.17" y2="242.32"/><line class="cls-7" x1="376.89" y1="213.49" x2="316.75" y2="222.77"/><line class="cls-7" x1="373.46" y1="193.94" x2="313.33" y2="203.21"/><line class="cls-7" x1="370.04" y1="174.39" x2="309.91" y2="183.66"/><polygon class="cls-7" points="307.22 162.93 366.13 153.84 367.29 160.47 308.38 169.55 307.22 162.93"/><polygon class="cls-8" points="354.89 155.57 366.13 153.84 367.29 160.47 356.05 162.2 354.89 155.57"/><polygon class="cls-8" points="307.22 162.93 318.46 161.19 319.62 167.82 308.38 169.55 307.22 162.93"/><polygon class="cls-8" points="329.95 296.35 389.77 287.13 390.53 291.45 330.7 300.67 329.95 296.35"/><path class="cls-9" d="M299.27,92.29c-2.14-12.25,7.25-23.89,21-26s26.59,6.1,28.73,18.34-7.25,23.89-21,26S301.42,104.53,299.27,92.29Z"/><path class="cls-1" d="M518.05,329.41l-69.73,15.72a6.1,6.1,0,0,1-7.25-4.44L358.62,18.4,440.25,0l82.37,322A6.1,6.1,0,0,1,518.05,329.41Z"/><polygon class="cls-2" points="482.54 196.36 419.06 210.67 382.03 65.94 445.52 51.63 482.54 196.36"/><path class="cls-2" d="M493.94,264c3.29,12.85-5.75,25.91-20.2,29.16s-28.82-4.52-32.1-17.37,5.75-25.91,20.2-29.16S490.65,251.17,493.94,264Z"/><path class="cls-3" d="M492.28,264.39c3.09,12.07-5.37,24.32-18.9,27.37s-27-4.26-30.08-16.33,5.37-24.32,18.9-27.37S489.19,252.32,492.28,264.39Z"/><line class="cls-4" x1="384.51" y1="66.89" x2="443.76" y2="53.53"/><line class="cls-5" x1="384.95" y1="68.59" x2="444.2" y2="55.23"/><line class="cls-6" x1="385.38" y1="70.29" x2="444.63" y2="56.94"/><line class="cls-6" x1="387.24" y1="77.58" x2="446.5" y2="64.22"/><line class="cls-5" x1="387.68" y1="79.28" x2="446.93" y2="65.92"/><line class="cls-4" x1="388.12" y1="80.98" x2="447.37" y2="67.62"/><line class="cls-7" x1="390.68" y1="91.01" x2="449.93" y2="77.65"/><line class="cls-7" x1="395.61" y1="110.27" x2="454.86" y2="96.92"/><line class="cls-7" x1="400.54" y1="129.54" x2="459.79" y2="116.19"/><line class="cls-7" x1="405.47" y1="148.81" x2="464.72" y2="135.45"/><line class="cls-7" x1="410.4" y1="168.08" x2="469.65" y2="154.72"/><line class="cls-7" x1="415.33" y1="187.35" x2="474.58" y2="173.99"/><polygon class="cls-7" points="478.87 194.48 420.82 207.57 419.15 201.04 477.2 187.96 478.87 194.48"/><polygon class="cls-8" points="431.89 205.07 420.82 207.57 419.15 201.04 430.22 198.55 431.89 205.07"/><polygon class="cls-8" points="478.87 194.48 467.8 196.98 466.13 190.45 477.2 187.96 478.87 194.48"/><polygon class="cls-8" points="445.86 62.96 386.9 76.25 385.82 72 444.77 58.71 445.86 62.96"/><path class="cls-9" d="M492.28,264.39c3.09,12.07-5.37,24.32-18.9,27.37s-27-4.26-30.08-16.33,5.37-24.32,18.9-27.37S489.19,252.32,492.28,264.39Z"/></svg>