<svg id="Layer_1" data-name="Layer 1" xmlns="http://www.w3.org/2000/svg" viewBox="0 0 482.56 355.6"><defs><style>.cls-1{fill:#452e83;}.cls-2{fill:#fff;opacity:0.1;}.cls-3{fill:#2e2766;}.cls-4{fill:#614ea0;opacity:0.78;}.cls-5{fill:#f3f9f2;opacity:0.21;}</style></defs><title>tape</title><path class="cls-1" d="M0,102.9l25,177.34L73.94,344s9.33,17,27.32,9.82C115.11,350.1,473.42,241.9,473.42,241.9s13.14,2.36,7.92-24.1c-4.9-23.49-17.39-164.66-17.39-164.66L393.81,3.65s-4.43-6.28-24.8-.34S207.94,47.59,207.94,47.59s-17.8,1.91-13.75,18.73c0.43,18,8,95.9,8,95.9s4.2,18.13-15.7,21.48-73.76,18.88-73.76,18.88l-1.19.31-6.17-35.63s1.74-6.47-6.23-10.86C93.36,151,40,94.11,40,94.11s-2-5-18.66.88S-0.44,99.59,0,102.9Z"/><polygon class="cls-2" points="0.03 102.9 25.07 280.24 76.77 347.88 57.14 165.04 0.03 102.9"/><path class="cls-2" d="M111.31,202.4L124,274.63s-0.79,15.8,19.81,11.66,117.76-31.07,117.76-31.07l-65.35-74.87Z"/><path class="cls-2" d="M193.83,63.49l9,110.78,9.12,2.87s5.43,0.82,5.18-4.21c-0.24-4.62-7.43-85-8.61-98.22a4.28,4.28,0,0,0-1.61-3l-11.44-9.09A1,1,0,0,0,193.83,63.49Z"/><path class="cls-2" d="M203.43,51.82l10.65,9.87a4.46,4.46,0,0,0,4.25,1L373,19l40.33,30.65L257.58,94.92a1.52,1.52,0,0,0-.58,2.6l11.16,9.85a4.5,4.5,0,0,0,4.16,1L461.49,56.92s4.37-2.19,1.58-4.69S393.26,2.45,393.26,2.45s-3.36-4.14-15-1.67c-10.53,2.93-150.12,41.09-174,47.63A2,2,0,0,0,203.43,51.82Z"/><path class="cls-3" d="M16.23,124.42l23.68,24.84s0.67-4.2,7-4.87l6.31-.68L27.6,114.95l-8.89,2.83S11.53,119.48,16.23,124.42Z"/><path class="cls-4" d="M18.4,125.5s26.28-10.32,43.55-12,142-9.23,142-9.23,1.31-36.71,27.2-57.68,56.58-26.88,56.58-26.88,25.78-2.77,50.1,14.13,32.09,28.06,32.09,28.06l-42,12.2s-6.24-5.71-22.24-2.68-31.95,16.93-31.95,16.93l-0.85.84-15.75,3.56s-11.84,3.33-11.77,12.7,5.82,84,5.82,84l-20-18.85S206,151.88,204.15,125.83l-0.49-1.07-30.21,3-89.27,5.92S55.39,136.72,38.1,146C32.23,139.91,18.4,125.5,18.4,125.5Z"/><path class="cls-5" d="M18.4,125.5s26.28-10.32,43.55-12,142-9.23,142-9.23,1.31-36.71,27.2-57.68,56.58-26.88,56.58-26.88,25.78-2.77,50.1,14.13,32.09,28.06,32.09,28.06l-42,12.2s-6.24-5.71-22.24-2.68-31.95,16.93-31.95,16.93l-0.85.84-15.75,3.56s-11.84,3.33-11.77,12.7,5.82,84,5.82,84l-20-18.85S206,151.88,204.15,125.83l-0.49-1.07-30.21,3-89.27,5.92S55.39,136.72,38.1,146C32.23,139.91,18.4,125.5,18.4,125.5Z"/></svg>